HIERARCHY
ROOT hip
{
  OFFSET -113.034 82.8786 118.041
  CHANNELS 6 Xposition Yposition Zposition Zrotation Xrotation Yrotation
  JOINT abdomen
  {
    OFFSET 0 20.6881 -0.73152
    CHANNELS 3 Zrotation Xrotation Yrotation
    JOINT chest
    {
      OFFSET 0 11.7043 -0.48768
      CHANNELS 3 Zrotation Xrotation Yrotation
      JOINT neck
      {
        OFFSET 0 22.1894 -2.19456
        CHANNELS 3 Zrotation Xrotation Yrotation
        JOINT head
        {
          OFFSET -0.24384 7.07133 1.2192
          CHANNELS 3 Zrotation Xrotation Yrotation
          JOINT leftEye
          {
            OFFSET 4.14528 8.04674 8.04672
            CHANNELS 3 Zrotation Xrotation Yrotation
            End Site
            {
              OFFSET 1 0 0
            }
          }
          JOINT rightEye
          {
            OFFSET -3.6576 8.04674 8.04672
            CHANNELS 3 Zrotation Xrotation Yrotation
            End Site
            {
              OFFSET 1 0 0
            }
          }
        }
      }
      JOINT rCollar
      {
        OFFSET -2.68224 19.2634 -4.8768
        CHANNELS 3 Zrotation Xrotation Yrotation
        JOINT rShldr
        {
          OFFSET -8.77824 -1.95073 1.46304
          CHANNELS 3 Zrotation Xrotation Yrotation
          JOINT rForeArm
          {
            OFFSET -28.1742 -1.7115 0.48768
            CHANNELS 3 Zrotation Xrotation Yrotation
            JOINT rHand
            {
              OFFSET -22.5879 0.773209 7.07136
              CHANNELS 3 Zrotation Xrotation Yrotation
              JOINT rThumb1
              {
                OFFSET -1.2192 -0.487915 3.41376
                CHANNELS 3 Zrotation Xrotation Yrotation
                JOINT rThumb2
                {
                  OFFSET -3.37035 -0.52449 3.41376
                  CHANNELS 3 Zrotation Xrotation Yrotation
                  End Site
                  {
                    OFFSET -1.78271 -1.18214 1.43049
                  }
                }
              }
              JOINT rIndex1
              {
                OFFSET -7.75947 0.938293 5.60832
                CHANNELS 3 Zrotation Xrotation Yrotation
                JOINT rIndex2
                {
                  OFFSET -2.54057 -0.884171 1.56538
                  CHANNELS 3 Zrotation Xrotation Yrotation
                  End Site
                  {
                    OFFSET -1.62519 -0.234802 1.16502
                  }
                }
              }
              JOINT rMid1
              {
                OFFSET -8.24714 1.18213 3.41376
                CHANNELS 3 Zrotation Xrotation Yrotation
                JOINT rMid2
                {
                  OFFSET -3.10165 -0.590103 1.0647
                  CHANNELS 3 Zrotation Xrotation Yrotation
                  End Site
                  {
                    OFFSET -2.48547 -0.328903 0.83742
                  }
                }
              }
              JOINT rRing1
              {
                OFFSET -8.82822 0.546677 1.51678
                CHANNELS 3 Zrotation Xrotation Yrotation
                JOINT rRing2
                {
                  OFFSET -2.60934 -0.819778 -0.0198488
                  CHANNELS 3 Zrotation Xrotation Yrotation
                  End Site
                  {
                    OFFSET -2.33842 -0.294052 0.168128
                  }
                }
              }
              JOINT rPinky1
              {
                OFFSET -8.27202 -0.0477905 -0.4584
                CHANNELS 3 Zrotation Xrotation Yrotation
                JOINT rPinky2
                {
                  OFFSET -1.82734 -0.647385 -0.700984
                  CHANNELS 3 Zrotation Xrotation Yrotation
                  End Site
                  {
                    OFFSET -1.69225 -0.51767 -0.607171
                  }
                }
              }
            }
          }
        }
      }
      JOINT lCollar
      {
        OFFSET 2.68224 19.2634 -4.8768
        CHANNELS 3 Zrotation Xrotation Yrotation
        JOINT lShldr
        {
          OFFSET 8.77824 -1.95073 1.46304
          CHANNELS 3 Zrotation Xrotation Yrotation
          JOINT lForeArm
          {
            OFFSET 28.1742 -1.7115 0.48768
            CHANNELS 3 Zrotation Xrotation Yrotation
            JOINT lHand
            {
              OFFSET 22.5879 0.773209 7.07136
              CHANNELS 3 Zrotation Xrotation Yrotation
              JOINT lThumb1
              {
                OFFSET 1.2192 -0.487915 3.41376
                CHANNELS 3 Zrotation Xrotation Yrotation
                JOINT lThumb2
                {
                  OFFSET 3.37035 -0.52449 3.41376
                  CHANNELS 3 Zrotation Xrotation Yrotation
                  End Site
                  {
                    OFFSET 1.78271 -1.18214 1.43049
                  }
                }
              }
              JOINT lIndex1
              {
                OFFSET 7.75947 0.938293 5.60832
                CHANNELS 3 Zrotation Xrotation Yrotation
                JOINT lIndex2
                {
                  OFFSET 2.54057 -0.884171 1.56538
                  CHANNELS 3 Zrotation Xrotation Yrotation
                  End Site
                  {
                    OFFSET 1.62519 -0.234802 1.16502
                  }
                }
              }
              JOINT lMid1
              {
                OFFSET 8.24714 1.18213 3.41376
                CHANNELS 3 Zrotation Xrotation Yrotation
                JOINT lMid2
                {
                  OFFSET 3.10165 -0.590103 1.0647
                  CHANNELS 3 Zrotation Xrotation Yrotation
                  End Site
                  {
                    OFFSET 2.48547 -0.328903 0.83742
                  }
                }
              }
              JOINT lRing1
              {
                OFFSET 8.82822 0.546677 1.51678
                CHANNELS 3 Zrotation Xrotation Yrotation
                JOINT lRing2
                {
                  OFFSET 2.60934 -0.819778 -0.0198488
                  CHANNELS 3 Zrotation Xrotation Yrotation
                  End Site
                  {
                    OFFSET 2.33842 -0.294052 0.168128
                  }
                }
              }
              JOINT lPinky1
              {
                OFFSET 8.27202 -0.0477905 -0.4584
                CHANNELS 3 Zrotation Xrotation Yrotation
                JOINT lPinky2
                {
                  OFFSET 1.82734 -0.647385 -0.700984
                  CHANNELS 3 Zrotation Xrotation Yrotation
                  End Site
                  {
                    OFFSET 1.69225 -0.51767 -0.607171
                  }
                }
              }
            }
          }
        }
      }
    }
  }
  JOINT rButtock
  {
    OFFSET -8.77824 4.35084 1.2192
    CHANNELS 3 Zrotation Xrotation Yrotation
    JOINT rThigh
    {
      OFFSET 0 -1.70687 -2.19456
      CHANNELS 3 Zrotation Xrotation Yrotation
      JOINT rShin
      {
        OFFSET 0 -36.8199 0.73152
        CHANNELS 3 Zrotation Xrotation Yrotation
        JOINT rFoot
        {
          OFFSET 0.73152 -45.1104 -5.12064
          CHANNELS 3 Zrotation Xrotation Yrotation
          End Site
          {
            OFFSET -1.1221 -3.69964 12.103
          }
        }
      }
    }
  }
  JOINT lButtock
  {
    OFFSET 8.77824 4.35084 1.2192
    CHANNELS 3 Zrotation Xrotation Yrotation
    JOINT lThigh
    {
      OFFSET 0 -1.70687 -2.19456
      CHANNELS 3 Zrotation Xrotation Yrotation
      JOINT lShin
      {
        OFFSET 0 -36.8199 0.73152
        CHANNELS 3 Zrotation Xrotation Yrotation
        JOINT lFoot
        {
          OFFSET -0.73152 -45.1104 -5.12064
          CHANNELS 3 Zrotation Xrotation Yrotation
          End Site
          {
            OFFSET 1.1221 -3.69964 12.103
          }
        }
      }
    }
  }
}
MOTION
Frames:	5
Frame Time:	0.00833333
85.8109 84.8839 -53.5689 0.147522 -0.000239384 -0.00252446 -0.194077 -0.000752048 -0.00553941 -0.0535363 -0.00112971 -0.00927447 1.90068e-015 0 6.21203e-018 5.71506e-015 3.18055e-015 0 -0 0 0 -0 0 0 9.9263e-016 -1.94126e-019 1.49089e-016 2.18394e-014 2.60905e-016 7.95139e-016 3.45438e-013 -1.00585e-013 1.27222e-014 3.95906e-012 1.13208e-013 -6.36111e-015 9.33447e-012 2.24942e-014 2.22639e-014 1.61226e-011 3.49861e-014 3.26007e-014 9.33851e-012 2.38542e-014 6.36111e-015 7.73091 5.47488 0.417314 9.33403e-012 2.23633e-014 1.90833e-014 2.90554 0.965183 0.102902 9.3433e-012 2.27608e-014 1.82882e-014 10.2786 0.731801 0.0259123 9.32996e-012 2.46493e-014 2.54444e-014 2.22167 -0.733487 -0.20892 8.95887e-016 -1.94126e-019 -1.49089e-016 1.83234e-014 4.96962e-017 -7.95139e-016 3.43997e-013 1.05157e-013 3.18055e-015 3.95951e-012 -9.69821e-014 1.27222e-014 9.33888e-012 1.55371e-014 2.22639e-014 1.61354e-011 2.8625e-014 3.4191e-014 9.33175e-012 1.63003e-014 3.18055e-014 -7.73091 5.47488 -0.417314 9.33935e-012 1.53064e-014 1.59028e-014 -2.90554 0.965183 -0.102902 9.33754e-012 1.51076e-014 1.82882e-014 -10.2786 0.731801 -0.0259123 9.34467e-012 1.74931e-014 1.59028e-014 -2.22167 -0.733487 0.20892 -2.03217e-016 0 -3.88251e-019 0.355848 -2.82714 -0.0340693 -0.00665502 -0.431853 -0.0584469 -0.502538 3.25829 0.123799 2.03217e-016 0 3.88251e-019 -0.651367 -3.58303 0.0525573 0.00446006 0.937453 0.0381208 0.504976 2.64491 -0.111593 
83.2652 83.4471 -55.3184 0.891008 0.322144 -12.3217 -0.348854 0.614312 0.0669633 0.335254 -1.37738 0.0146756 -3.28145 -1.49097 -1.16578 3.64288 0.370707 -1.14893 -0 0 0 -0 0 0 2.24868e-015 -3.28309e-014 7.16324e-014 22.2354 5.18255 -0.356745 -4.16446 -1.88132 6.51628 0.0164059 2.84187 0.397626 -1.98034e-010 3.13467e-011 1.02924e-010 -3.40539e-010 5.35672e-011 1.79297e-010 -1.98032e-010 3.1349e-011 1.02911e-010 7.73091 5.47488 0.417314 -1.98034e-010 3.1348e-011 1.02923e-010 2.90554 0.965183 0.102902 -1.98027e-010 3.13487e-011 1.02923e-010 10.2786 0.731801 0.0259123 -1.9804e-010 3.1351e-011 1.02933e-010 2.22167 -0.733487 -0.20892 2.19345e-015 -3.28303e-014 7.13773e-014 -22.6087 6.32996 0.96331 4.60903 -2.17785 -7.10602 -0.00409808 1.45865 -0.204787 -2.15069e-010 -1.01413e-010 -2.16858e-010 -3.73358e-010 -1.75055e-010 -3.73904e-010 -2.15079e-010 -1.01413e-010 -2.16848e-010 -7.73091 5.47488 -0.417314 -2.15069e-010 -1.01415e-010 -2.16861e-010 -2.90554 0.965183 -0.102902 -2.15074e-010 -1.01415e-010 -2.16858e-010 -10.2786 0.731801 -0.0259123 -2.15064e-010 -1.01411e-010 -2.16858e-010 -2.22167 -0.733487 0.20892 -2.03217e-016 0 -3.88251e-019 1.03663 -5.88951 1.16124 0.0137103 8.65328 0.0990013 -0.735803 -1.99312 -1.85959 2.03217e-016 0 3.88251e-019 -1.66162 -5.30608 -0.480054 -0.00611805 7.21487 -0.0601036 0.605758 -1.01546 0.878098 
83.2118 83.4433 -55.3705 1.80935 0.62021 -25.3465 -0.497402 1.26972 0.13586 0.747873 -2.83598 0.0379374 -6.83402 -3.0533 -2.40009 7.53637 0.743947 -2.35631 -0 0 0 -0 0 0 2.02201e-015 -7.18114e-014 1.38839e-013 45.8074 10.6737 -0.744174 -8.10704 -3.79058 13.4308 -0.00933723 5.84356 0.820941 -3.41155e-010 -5.15297e-011 2.06519e-010 -5.86079e-010 -9.08337e-011 3.58974e-010 -3.41157e-010 -5.15264e-011 2.06509e-010 7.73091 5.47488 0.417314 -3.41156e-010 -5.1527e-011 2.06521e-010 2.90554 0.965183 0.102902 -3.41152e-010 -5.15259e-011 2.06522e-010 10.2786 0.731801 0.0259123 -3.41164e-010 -5.1523e-011 2.06536e-010 2.22167 -0.733487 -0.20892 2.01282e-015 -7.18103e-014 1.38631e-013 -46.7523 12.9979 2.02572 8.90707 -4.3746 -14.6635 0.00301099 2.96211 -0.416327 -3.88138e-010 -3.03097e-010 -4.7667e-010 -6.74417e-010 -5.24557e-010 -8.2264e-010 -3.8815e-010 -3.03099e-010 -4.7666e-010 -7.73091 5.47488 -0.417314 -3.88138e-010 -3.03101e-010 -4.76671e-010 -2.90554 0.965183 -0.102902 -3.88146e-010 -3.03101e-010 -4.76666e-010 -10.2786 0.731801 -0.0259123 -3.88134e-010 -3.03096e-010 -4.76664e-010 -2.22167 -0.733487 0.20892 -2.03217e-016 0 -3.88251e-019 1.91035 -9.11443 2.444 -0.0213846 18.2526 0.276988 -1.38021 -7.52535 -3.98959 2.03217e-016 0 3.88251e-019 -2.74553 -7.12763 -1.01858 0.00675937 13.8579 -0.167887 0.846568 -4.89092 1.90541 
83.2004 83.4485 -55.3589 2.76198 0.790814 -36.9636 -0.66308 1.84443 0.212067 1.11629 -4.12987 0.0627259 -10.0267 -4.46549 -3.50682 10.9732 1.11033 -3.44737 -0 0 0 -0 0 0 4.76078e-015 -9.84922e-014 2.14599e-013 66.9061 15.5452 -1.10633 -11.2326 -5.35255 19.6273 -0.0702319 8.52397 1.20472 -6.1277e-010 9.39951e-011 3.08727e-010 -1.05386e-009 1.60632e-010 5.37825e-010 -6.12774e-010 9.39993e-011 3.0872e-010 7.73091 5.47488 0.417314 -6.12771e-010 9.39991e-011 3.08731e-010 2.90554 0.965183 0.102902 -6.12769e-010 9.40005e-011 3.08733e-010 10.2786 0.731801 0.0259123 -6.1278e-010 9.40037e-011 3.0875e-010 2.22167 -0.733487 -0.20892 4.78856e-015 -9.84905e-014 2.1443e-013 -68.4955 18.9678 3.03738 12.2403 -6.13242 -21.4312 0.0190641 4.37574 -0.615956 -6.63885e-010 -3.04269e-010 -6.50617e-010 -1.15235e-009 -5.25224e-010 -1.12178e-009 -6.639e-010 -3.04272e-010 -6.50607e-010 -7.73091 5.47488 -0.417314 -6.63886e-010 -3.04275e-010 -6.50616e-010 -2.90554 0.965183 -0.102902 -6.63896e-010 -3.04274e-010 -6.50609e-010 -10.2786 0.731801 -0.0259123 -6.63882e-010 -3.04268e-010 -6.50606e-010 -2.22167 -0.733487 0.20892 -2.03217e-016 0 -3.88251e-019 2.78901 -11.9947 3.61236 -0.109329 26.8229 0.460009 -2.31061 -12.4336 -5.96293 2.03217e-016 0 3.88251e-019 -3.77926 -8.74954 -1.55702 0.0405271 19.7695 -0.271092 1.18938 -8.32614 2.88729 
83.1289 83.4566 -55.3817 3.53045 0.819744 -45.0577 -0.86899 2.21738 0.306475 1.37224 -5.01197 0.0912151 -12.1934 -5.50924 -4.28593 13.2411 1.46102 -4.24724 -0 0 0 -0 0 0 1.49132e-014 -9.44235e-014 3.11744e-013 81.6767 18.8702 -1.37047 -13.1979 -6.32511 23.9537 -0.134592 10.4027 1.47845 -1.20562e-009 8.10523e-010 4.07467e-010 -2.07725e-009 1.40176e-009 7.14611e-010 -1.20562e-009 8.10527e-010 4.07461e-010 7.73091 5.47488 0.417314 -1.20562e-009 8.10528e-010 4.07474e-010 2.90554 0.965183 0.102902 -1.20562e-009 8.10529e-010 4.07475e-010 10.2786 0.731801 0.0259123 -1.20563e-009 8.10532e-010 4.07493e-010 2.22167 -0.733487 -0.20892 1.49552e-014 -9.44214e-014 3.11595e-013 -83.7533 23.2136 3.78287 14.2779 -7.18093 -26.1149 0.038133 5.56493 -0.784594 -1.19633e-009 1.95841e-010 -6.099e-010 -2.07245e-009 3.46197e-010 -1.04693e-009 -1.19634e-009 1.95838e-010 -6.0989e-010 -7.73091 5.47488 -0.417314 -1.19633e-009 1.95835e-010 -6.09897e-010 -2.90554 0.965183 -0.102902 -1.19634e-009 1.95836e-010 -6.0989e-010 -10.2786 0.731801 -0.0259123 -1.19633e-009 1.95842e-010 -6.09887e-010 -2.22167 -0.733487 0.20892 -2.03217e-016 0 -3.88251e-019 3.40281 -14.0311 4.44206 -0.209936 32.8214 0.611273 -3.16759 -15.8445 -7.39943 2.03217e-016 0 3.88251e-019 -4.62687 -9.87404 -2.0867 0.0773805 23.8528 -0.348884 1.53084 -10.6698 3.72427 
